# xmcd
#
# Track frame offsets: 
#        300
#        35062
#        56862
#        79675
#        112984
#        148288
#        170399
#        203369
#        237826
#        270861
#        300264
#
# Disc length: 4326 seconds
#
# Revision: 2
# Processed by: cddbd v1.5.2PL0 Copyright (c) Steve Scherf et al.
# Submitted via: ExactAudioCopy v0.99pb4
#
DISCID=8b10e20b
DTITLE=Various Artist - CD Pool - Club - 09.06 [CD1]
DYEAR=2009
DGENRE=Electronic - Dance
TTITLE0=Sneaky Sound System - It's Not My Problem (Thin White Duke Rem
TTITLE0=ix)
TTITLE1=Filthy Dukes - Messages (Kris Menace Mix)
TTITLE2=Disco International - Ready 4 More (Club Mix)
TTITLE3=Ethan - In My Heart (DJ DLG Instrumental)
TTITLE4=Albin Myers - Times Like These (Club Mix)
TTITLE5=Pixie Lott - Mama Do (Uh Oh, Uh Oh)(Linus Loves Vocal Mix)
TTITLE6=Sylvia Tosun and Loverush UK - 5 Reasons (Donni Hotwheel D.H.O.T
TTITLE6=Dub Mix)
TTITLE7=Summer Of Love - Sunloverz (Ian Carey Remix)
TTITLE8=Leisuregroove - Round and Round (Club Mix)
TTITLE9=Wild and Klosman - Save Me (Original Mix)
TTITLE10=Tommy Vee and Mauro Ferrucci Featuring The Bloody Beetroots - S
TTITLE10=tay (The Bloody Beetroots Club Mix)
EXTD=
EXTT0=
EXTT1=
EXTT2=
EXTT3=
EXTT4=
EXTT5=
EXTT6=
EXTT7=
EXTT8=
EXTT9=
EXTT10=
PLAYORDER=
